<?xml version="1.0" encoding="UTF-8"?>
<svg id="_圖層_2" data-name="圖層 2" xmlns="http://www.w3.org/2000/svg" viewBox="0 0 597.21 597.23">
  <defs>
    <style>
      .cls-1 {
        fill: #0cb802;
      }

      .cls-2 {
        fill: #fff;
      }
    </style>
  </defs>
  <g id="Layer_1" data-name="Layer 1">
    <g>
      <g>
        <ellipse class="cls-1" cx="298.6" cy="298.62" rx="295.13" ry="295.14"/>
        <path class="cls-1" d="M591.15,238.44c-3.92-19.17-9.78-38.03-17.41-56.05-7.48-17.7-16.75-34.76-27.53-50.73-10.68-15.81-22.94-30.68-36.46-44.19-13.51-13.51-28.38-25.78-44.19-36.46-15.97-10.79-33.03-20.05-50.72-27.53-18.02-7.62-36.89-13.48-56.06-17.4-19.67-4.03-39.92-6.07-60.18-6.07s-40.5,2.04-60.18,6.07c-19.17,3.92-38.03,9.78-56.05,17.4-17.7,7.48-34.76,16.75-50.72,27.53-15.81,10.68-30.68,22.95-44.19,36.46-13.51,13.51-25.78,28.38-36.46,44.19-10.79,15.96-20.05,33.03-27.53,50.73-7.62,18.02-13.48,36.88-17.4,56.05-4.03,19.68-6.07,39.92-6.07,60.18s2.04,40.51,6.07,60.18c3.92,19.17,9.78,38.04,17.4,56.06,7.48,17.69,16.75,34.76,27.53,50.73,10.68,15.81,22.95,30.68,36.46,44.19,13.51,13.52,28.38,25.78,44.19,36.47,15.96,10.78,33.03,20.05,50.72,27.53,18.02,7.62,36.88,13.48,56.05,17.4,2.15.44,4.31.85,6.47,1.25,17.63,3.2,35.66,4.81,53.7,4.81,1.34,0,2.67-.01,4.01-.03,13.96-.18,27.9-1.33,41.64-3.44,4.87-.75,9.72-1.61,14.53-2.59,19.17-3.92,38.04-9.78,56.06-17.4,17.69-7.48,34.76-16.75,50.72-27.53,15.81-10.68,30.68-22.95,44.19-36.47,13.51-13.51,25.78-28.38,36.46-44.19,10.79-15.97,20.05-33.03,27.53-50.73,7.62-18.02,13.48-36.89,17.41-56.06,4.03-19.67,6.06-39.92,6.06-60.18s-2.04-40.5-6.06-60.18ZM344.25,586.71c-14.88,2.35-30.13,3.57-45.65,3.57-18.32,0-36.25-1.7-53.65-4.94C109.67,560.08,6.95,441.12,6.95,298.62,6.95,137.79,137.78,6.95,298.6,6.95s291.66,130.84,291.66,291.67c0,145.3-106.79,266.12-246,288.1Z"/>
      </g>
      <g id="FULL_COLOR_ICON" data-name="FULL COLOR ICON">
        <g id="TYPE_A" data-name="TYPE A">
          <g>
            <path class="cls-2" d="M506.29,269.27c0-92.94-93.17-168.55-207.69-168.55s-207.69,75.61-207.69,168.55c0,83.32,73.89,153.1,173.69,166.29,6.76,1.46,15.97,4.46,18.3,10.24,2.09,5.25,1.37,13.47.67,18.78,0,0-2.44,14.66-2.96,17.78-.9,5.25-4.17,20.54,17.99,11.2,22.17-9.34,119.61-70.43,163.18-120.59h0c30.1-33.01,44.52-66.51,44.52-103.7"/>
            <g>
              <path class="cls-1" d="M256.41,224.36h-14.57c-2.23,0-4.05,1.81-4.05,4.04v90.5c0,2.23,1.81,4.04,4.05,4.04h14.57c2.23,0,4.05-1.81,4.05-4.04v-90.5c0-2.23-1.81-4.04-4.05-4.04"/>
              <path class="cls-1" d="M356.68,224.36h-14.57c-2.24,0-4.05,1.81-4.05,4.04v53.76l-41.47-56.01c-.09-.14-.2-.28-.31-.41,0,0-.02-.02-.03-.03-.08-.09-.16-.17-.24-.25-.03-.02-.05-.05-.08-.07-.07-.06-.14-.12-.22-.18-.03-.03-.07-.06-.11-.08-.07-.05-.14-.1-.21-.14-.04-.03-.08-.05-.12-.07-.07-.04-.14-.08-.22-.12-.04-.02-.09-.04-.13-.06-.08-.03-.15-.07-.23-.1-.05-.02-.09-.03-.13-.05-.08-.03-.16-.06-.24-.08-.05-.01-.09-.02-.14-.04-.08-.02-.15-.04-.23-.05-.06,0-.11-.02-.17-.02-.07-.01-.14-.02-.21-.03-.07,0-.14,0-.21-.01-.05,0-.09,0-.14,0h-14.57c-2.23,0-4.05,1.81-4.05,4.04v90.5c0,2.23,1.81,4.04,4.05,4.04h14.57c2.24,0,4.05-1.81,4.05-4.04v-53.75l41.52,56.08c.29.4.64.73,1.03,1,.01,0,.03.02.04.03.08.05.16.1.25.15.04.02.08.04.11.06.06.03.13.07.19.09.07.03.13.06.2.08.04.02.08.03.12.05.1.03.18.06.28.09.02,0,.04,0,.06.01.33.09.68.14,1.04.14h14.57c2.24,0,4.05-1.81,4.05-4.04v-90.5c0-2.23-1.81-4.04-4.05-4.04"/>
              <path class="cls-1" d="M221.29,300.27h-39.58v-71.87c0-2.23-1.81-4.04-4.04-4.04h-14.57c-2.23,0-4.05,1.81-4.05,4.04v90.49h0c0,1.09.43,2.08,1.13,2.8.02.02.03.04.06.06.02.02.04.04.06.06.73.7,1.71,1.13,2.79,1.13h58.2c2.23,0,4.04-1.81,4.04-4.05v-14.57c0-2.23-1.81-4.05-4.04-4.05"/>
              <path class="cls-1" d="M437.13,247.02c2.23,0,4.04-1.81,4.04-4.05v-14.57c0-2.24-1.81-4.05-4.04-4.05h-58.2c-1.09,0-2.08.44-2.81,1.14-.01.02-.03.03-.05.04-.02.03-.05.05-.07.07-.69.72-1.12,1.7-1.12,2.79h0v90.49h0c0,1.09.43,2.08,1.13,2.8.02.02.04.04.06.06.02.02.04.04.06.05.72.7,1.71,1.13,2.79,1.13h58.2c2.23,0,4.04-1.81,4.04-4.05v-14.57c0-2.23-1.81-4.05-4.04-4.05h-39.58v-15.3h39.58c2.23,0,4.04-1.81,4.04-4.05v-14.57c0-2.24-1.81-4.05-4.04-4.05h-39.58v-15.29h39.58Z"/>
            </g>
          </g>
        </g>
      </g>
    </g>
  </g>
</svg>