<?xml version="1.0" encoding="UTF-8"?>
<svg id="_圖層_2" data-name="圖層 2" xmlns="http://www.w3.org/2000/svg" viewBox="0 0 605.02 605.05">
  <defs>
    <style>
      .cls-1 {
        fill: #4d4d4d;
      }

      .cls-2 {
        fill: none;
        stroke: #4d4d4d;
        stroke-miterlimit: 10;
        stroke-width: 20px;
      }
    </style>
  </defs>
  <g id="Layer_1" data-name="Layer 1">
    <g>
      <g>
        <ellipse class="cls-2" cx="302.51" cy="302.52" rx="289.11" ry="289.12"/>
        <path class="cls-2" d="M302.51,595.05c-19.84,0-39.68-2-58.95-5.94-18.78-3.84-37.26-9.58-54.91-17.05-17.33-7.33-34.05-16.41-49.69-26.97-15.49-10.46-30.05-22.48-43.29-35.72-13.24-13.24-25.25-27.8-35.72-43.29-10.56-15.64-19.64-32.36-26.97-49.69-7.47-17.66-13.2-36.13-17.05-54.91-3.94-19.27-5.94-39.1-5.94-58.95s2-39.68,5.94-58.95c3.84-18.78,9.58-37.26,17.05-54.91,7.33-17.33,16.41-34.05,26.97-49.69,10.46-15.49,22.48-30.05,35.72-43.29,13.24-13.24,27.8-25.25,43.29-35.72,15.64-10.57,32.36-19.64,49.69-26.97,17.65-7.47,36.13-13.2,54.91-17.05,19.27-3.94,39.1-5.94,58.95-5.94s39.68,2,58.95,5.94c18.78,3.84,37.26,9.58,54.91,17.05,17.33,7.33,34.05,16.41,49.69,26.97,15.49,10.46,30.05,22.48,43.29,35.72,13.24,13.24,25.25,27.8,35.72,43.29,10.56,15.64,19.64,32.36,26.97,49.69,7.47,17.66,13.2,36.13,17.05,54.91,3.94,19.27,5.94,39.1,5.94,58.95s-2,39.68-5.94,58.95c-3.84,18.78-9.58,37.26-17.05,54.91-7.33,17.33-16.41,34.05-26.97,49.69-10.46,15.49-22.48,30.05-35.72,43.29-13.24,13.24-27.8,25.25-43.29,35.72-15.64,10.56-32.36,19.64-49.69,26.97-17.65,7.47-36.13,13.2-54.91,17.05-19.27,3.94-39.1,5.94-58.95,5.94ZM302.51,16.81C144.97,16.81,16.81,144.98,16.81,302.52s128.17,285.72,285.7,285.72,285.7-128.17,285.7-285.72S460.05,16.81,302.51,16.81Z"/>
      </g>
      <path class="cls-1" d="M420.01,195.13l-1.6-1.6c-10.04-10.04-23.4-15.57-37.62-15.57s-27.6,5.53-37.64,15.57l-37.96,37.96c-17.69,17.69-20.63,45.67-7.02,66.56l-13.88,13.9c-8.57-5.58-18.54-8.52-28.87-8.52-14.28,0-27.66,5.51-37.7,15.53l-37.98,37.98c-10.03,10.02-15.55,23.39-15.55,37.62s5.53,27.58,15.56,37.62l1.6,1.62c10.03,10.02,23.39,15.55,37.62,15.55s27.6-5.52,37.62-15.55l37.98-37.98c17.68-17.68,20.61-45.64,7.02-66.58l13.88-13.87c20.9,13.61,48.87,10.67,66.56-7.02l37.96-37.96c10.04-10.03,15.56-23.4,15.56-37.63s-5.53-27.6-15.56-37.63ZM356.5,274.37c2.31-2.34,3.59-5.41,3.59-8.66s-1.28-6.34-3.59-8.66c-2.31-2.31-5.39-3.58-8.67-3.58-3.27,0-6.33,1.28-8.63,3.58l-22.95,22.95c-4.42-10.76-1.98-22.97,6.27-31.19l37.96-37.98c5.42-5.42,12.63-8.4,20.32-8.4s14.89,2.98,20.3,8.4l1.62,1.61c11.2,11.2,11.2,29.43,0,40.63l-37.96,37.96c-5.44,5.44-12.65,8.44-20.29,8.44-3.76,0-7.43-.72-10.92-2.15l22.95-22.95ZM218.99,424.88c-7.68,0-14.89-2.98-20.3-8.4l-1.62-1.61c-5.42-5.41-8.4-12.63-8.4-20.3s2.98-14.91,8.4-20.31l37.96-37.97c5.42-5.42,12.64-8.4,20.34-8.4,3.68,0,7.43.74,10.85,2.13l-22.93,22.95c-2.32,2.32-3.59,5.39-3.59,8.66s1.28,6.34,3.59,8.64c2.3,2.32,5.37,3.6,8.64,3.6s6.36-1.28,8.66-3.59l22.95-22.93c4.4,10.76,1.96,22.96-6.27,31.19l-37.96,37.96c-5.42,5.42-12.63,8.4-20.32,8.4Z"/>
    </g>
  </g>
</svg>