<?xml version="1.0" encoding="UTF-8"?>
<svg id="_圖層_2" data-name="圖層 2" xmlns="http://www.w3.org/2000/svg" viewBox="0 0 597.21 597.73">
  <defs>
    <style>
      .cls-1 {
        fill: #fff;
        stroke: #fff;
        stroke-miterlimit: 10;
      }

      .cls-2 {
        fill: #3968b1;
      }
    </style>
  </defs>
  <g id="Layer_1" data-name="Layer 1">
    <g>
      <g>
        <ellipse class="cls-2" cx="298.6" cy="298.62" rx="295.13" ry="295.14"/>
        <path class="cls-2" d="M591.15,238.44c-3.92-19.17-9.78-38.03-17.41-56.05-7.48-17.7-16.75-34.76-27.53-50.73-10.68-15.81-22.94-30.68-36.46-44.19-13.51-13.51-28.38-25.78-44.19-36.46-15.97-10.79-33.03-20.05-50.72-27.53-18.02-7.62-36.89-13.48-56.06-17.4-19.67-4.03-39.92-6.07-60.18-6.07s-40.5,2.04-60.18,6.07c-19.17,3.92-38.03,9.78-56.05,17.4-17.7,7.48-34.76,16.75-50.72,27.53-15.81,10.68-30.68,22.95-44.19,36.46-13.51,13.51-25.78,28.38-36.46,44.19-10.79,15.96-20.05,33.03-27.53,50.73-7.62,18.02-13.48,36.88-17.4,56.05-4.03,19.68-6.07,39.92-6.07,60.18s2.04,40.51,6.07,60.18c3.92,19.17,9.78,38.04,17.4,56.06,7.48,17.69,16.75,34.76,27.53,50.73,10.68,15.81,22.95,30.68,36.46,44.19,13.51,13.52,28.38,25.78,44.19,36.47,15.96,10.78,33.03,20.05,50.72,27.53,18.02,7.62,36.88,13.48,56.05,17.4,2.15.44,4.31.85,6.47,1.25,17.63,3.2,35.66,4.81,53.7,4.81,1.34,0,2.67-.01,4.01-.03,13.96-.18,27.9-1.33,41.64-3.44,4.87-.75,9.72-1.61,14.53-2.59,19.17-3.92,38.04-9.78,56.06-17.4,17.69-7.48,34.76-16.75,50.72-27.53,15.81-10.68,30.68-22.95,44.19-36.47,13.51-13.51,25.78-28.38,36.46-44.19,10.79-15.97,20.05-33.03,27.53-50.73,7.62-18.02,13.48-36.89,17.41-56.06,4.03-19.67,6.06-39.92,6.06-60.18s-2.04-40.5-6.06-60.18ZM344.25,586.71c-14.88,2.35-30.13,3.57-45.65,3.57-18.32,0-36.25-1.7-53.65-4.94C109.67,560.08,6.95,441.12,6.95,298.62,6.95,137.79,137.78,6.95,298.6,6.95s291.66,130.84,291.66,291.67c0,145.3-106.79,266.12-246,288.1Z"/>
      </g>
      <g>
        <path class="cls-1" d="M427.28,126.62v75.73h0c-11.45.03-22.89-.03-34.34.13-4.2.05-8.4.61-12.61.94-19.4.45-32.2,10.56-35.44,28.79-1.04,5.86-.48,12-.65,18.01,0,13.23,0,26.46,0,39.7v12.92h78.49c-1.68,11.96-3.29,23.41-4.9,34.85l.02.02c-.29,1.17-.57,2.34-.86,3.51-1.94,12.07-3.89,24.13-5.83,36.2-.6,2.98-1.19,5.96-1.9,9.45h-65.03v55.97c0,11.68.01,23.35.02,35.03,0,19.84,0,39.69-.01,59.53v57.42c-12.39,1.59-25.02,2.4-37.85,2.4-1.26,0-2.53,0-3.79-.03-19.75-.24-39.03-2.44-57.66-6.38v-204.24h-74.25c-.17-3.8-.31-7.04-.46-10.28v-73.73h74.72v-12.67c0-13.62,0-27.24,0-40.86.64-12.93,1.28-25.85,1.91-38.78.55-1.64,1.3-3.24,1.62-4.92,3.05-16.24,10.01-30.85,19.36-44.22,4.1-5.86,9.78-10.61,14.74-15.87,22.57-17.35,48.47-24.67,76.53-24.5,14.29.09,28.6,1.25,42.86,2.39,8.38.67,16.69,2.26,25.31,3.47Z"/>
        <path class="cls-1" d="M306.41,593.76c-1.26,0-2.52,0-3.78-.03-19.76-.25-39.04-2.47-57.67-6.48,0,.55-.01,1.1-.02,1.64-.02,1.18-.03,2.36-.04,3.53,17.63,3.2,35.66,4.81,53.7,4.81,1.34,0,2.67-.01,4.01-.03,1.26.02,2.52.03,3.79.03,12.82,0,25.46-.82,37.85-2.4v-3.51c-12.39,1.61-25.02,2.44-37.85,2.44Z"/>
      </g>
    </g>
  </g>
</svg>